Run_30002
nRows=4
nColumns=164

# SIMM Motion File Header:
name Run_30002
datacolumns 164
datarows 4
otherdata 1
range 4.41000000 4.44000000
endheader
time	pelvis_tilt	pelvis_list	pelvis_rotation	pelvis_tx	pelvis_ty	pelvis_tz	hip_flexion_r	hip_adduction_r	hip_rotation_r	knee_angle_r	ankle_angle_r	hip_flexion_l	hip_adduction_l	hip_rotation_l	knee_angle_l	ankle_angle_l	lumbar_extension	lumbar_bending	lumbar_rotation	arm_flex_r	arm_add_r	arm_rot_r	elbow_flex_r	pro_sup_r	arm_flex_l	arm_add_l	arm_rot_l	elbow_flex_l	pro_sup_l	subtalar_angle_r	mtp_angle_r	subtalar_angle_l	mtp_angle_l	wrist_flex_r	wrist_dev_r	wrist_flex_l	wrist_dev_l	LASI_tx	LASI_ty	LASI_tz	RASI_tx	RASI_ty	RASI_tz	LPSI_tx	LPSI_ty	LPSI_tz	RPSI_tx	RPSI_ty	RPSI_tz	RTH1_tx	RTH1_ty	RTH1_tz	RTH2_tx	RTH2_ty	RTH2_tz	RTH3_tx	RTH3_ty	RTH3_tz	LTH1_tx	LTH1_ty	LTH1_tz	LTH2_tx	LTH2_ty	LTH2_tz	LTH3_tx	LTH3_ty	LTH3_tz	RTB1_tx	RTB1_ty	RTB1_tz	RTB2_tx	RTB2_ty	RTB2_tz	RTB3_tx	RTB3_ty	RTB3_tz	LTB1_tx	LTB1_ty	LTB1_tz	LTB2_tx	LTB2_ty	LTB2_tz	LTB3_tx	LTB3_ty	LTB3_tz	RCAL_tx	RCAL_ty	RCAL_tz	RTOE_tx	RTOE_ty	RTOE_tz	RMT5_tx	RMT5_ty	RMT5_tz	LCAL_tx	LCAL_ty	LCAL_tz	LTOE_tx	LTOE_ty	LTOE_tz	LMT5_tx	LMT5_ty	LMT5_tz	LACR_tx	LACR_ty	LACR_tz	RACR_tx	RACR_ty	RACR_tz	CLAV_tx	CLAV_ty	CLAV_tz	C7_tx	C7_ty	C7_tz	RUA1_tx	RUA1_ty	RUA1_tz	RUA2_tx	RUA2_ty	RUA2_tz	RUA3_tx	RUA3_ty	RUA3_tz	RLEL_tx	RLEL_ty	RLEL_tz	RMEL_tx	RMEL_ty	RMEL_tz	LUA1_tx	LUA1_ty	LUA1_tz	LUA2_tx	LUA2_ty	LUA2_tz	LUA3_tx	LUA3_ty	LUA3_tz	LLEL_tx	LLEL_ty	LLEL_tz	LMEL_tx	LMEL_ty	LMEL_tz	RFAsuperior_tx	RFAsuperior_ty	RFAsuperior_tz	RFAradius_tx	RFAradius_ty	RFAradius_tz	RFAulna_tx	RFAulna_ty	RFAulna_tz	LFAsuperior_tx	LFAsuperior_ty	LFAsuperior_tz	LFAradius_tx	LFAradius_ty	LFAradius_tz	LFAulna_tx	LFAulna_ty	LFAulna_tz
      4.41000000	     -6.96724474	      1.21027634	     -1.33692607	      0.93686527	      0.95941423	     -0.31637063	     -8.14114509	     -2.63296637	     -3.55700246	    -54.68070119	    -15.19703842	     32.21608724	      5.57943373	     -4.49559550	    -19.48826125	     -2.16609629	     -3.10103798	     -2.26707279	     15.11315810	    -13.99409032	    -28.37527622	     -2.57220106	    120.80171691	     86.78585551	    -38.67531504	    -19.11421409	    -11.21345885	    118.25158050	    114.98659752	      0.00000000	      0.00000000	      0.00000000	      0.00000000	      0.00000000	      0.00000000	      0.00000000	      0.00000000	      0.94436345	      0.97860237	     -0.43554761	      0.93984192	      0.98031378	     -0.19672275	      0.78062093	      1.02787186	     -0.37258107	      0.77868304	      1.02968423	     -0.27354982	      0.82106654	      0.74501245	     -0.14354502	      0.85491816	      0.64867549	     -0.15464329	      0.76767279	      0.57790618	     -0.16550663	      0.95064078	      0.79120851	     -0.48704263	      1.03253069	      0.70904935	     -0.46464142	      1.00852265	      0.58826033	     -0.43849191	      0.64569362	      0.40089492	     -0.22105583	      0.55852675	      0.40626361	     -0.17632918	      0.46804161	      0.33743550	     -0.23471823	      1.09270314	      0.40962982	     -0.36568443	      1.04796346	      0.32017946	     -0.41970163	      1.09755580	      0.22068738	     -0.34448356	      0.35683072	      0.39651736	     -0.25983923	      0.35627236	      0.17535029	     -0.27116509	      0.31413370	      0.21764595	     -0.17489110	      1.01457582	      0.10035238	     -0.31623444	      1.23062948	      0.09140389	     -0.31459250	      1.18825825	      0.05370232	     -0.41054737	      0.90251553	      1.46915188	     -0.47453632	      0.95011413	      1.46176280	     -0.19257324	      1.01255594	      1.39343426	     -0.33277699	      0.87267346	      1.49100472	     -0.31997038	      0.93645763	      1.36794897	     -0.08213263	      0.87020575	      1.30808770	     -0.06720825	      0.92774647	      1.26046291	     -0.01637825	      0.91852112	      1.19222814	      0.02106328	      0.87230427	      1.15660370	     -0.03247654	      0.79122015	      1.40528921	     -0.54477236	      0.74682876	      1.36318805	     -0.48040851	      0.72930150	      1.32826321	     -0.56026473	      0.66619196	      1.26063738	     -0.57120338	      0.66249578	      1.23884628	     -0.49962076	      1.02196081	      1.19345423	     -0.03467515	      1.09002397	      1.20425839	     -0.15324591	      1.09950501	      1.13923620	     -0.12895823	      0.77845734	      1.22907923	     -0.58337252	      0.89591387	      1.16143232	     -0.53148576	      0.85687313	      1.12699105	     -0.57949823
      4.42000000	     -6.58061651	      1.50489840	     -0.95481398	      0.93594280	      0.95371060	     -0.31666036	     -6.03153228	     -3.26786268	     -3.81774978	    -61.00562927	    -14.03675581	     32.39373500	      6.18193897	     -4.97873903	    -23.66727927	     -0.99344495	     -3.62359930	     -2.73929069	     13.80689838	    -14.47398058	    -27.86190064	     -2.36589669	    119.57496753	     87.59859650	    -37.55227848	    -19.31573490	    -11.28252777	    118.45680228	    114.53005983	      0.00000000	      0.00000000	      0.00000000	      0.00000000	      0.00000000	      0.00000000	      0.00000000	      0.00000000	      0.94343007	      0.97348635	     -0.43560535	      0.94069885	      0.97476882	     -0.19703389	      0.77947881	      1.02065407	     -0.37253121	      0.77818834	      1.02165020	     -0.27362605	      0.82825943	      0.73692821	     -0.14242103	      0.86500341	      0.64182819	     -0.15111021	      0.78067321	      0.56846836	     -0.16301524	      0.94966264	      0.78632070	     -0.48608492	      1.03083846	      0.70404375	     -0.46315102	      1.00633887	      0.58391650	     -0.43808024	      0.65915809	      0.39593781	     -0.21752550	      0.57164018	      0.40730803	     -0.17409423	      0.47757339	      0.34410163	     -0.23249985	      1.08830074	      0.40203431	     -0.36381351	      1.04064935	      0.31525025	     -0.41611869	      1.08330172	      0.21461623	     -0.33861279	      0.36971714	      0.40949956	     -0.25908095	      0.35768102	      0.18866920	     -0.26768461	      0.31855121	      0.23416185	     -0.17169287	      0.99048327	      0.10205371	     -0.31148891	      1.20711692	      0.07638772	     -0.31164991	      1.16148840	      0.04908695	     -0.40945278	      0.90418903	      1.46244713	     -0.47613046	      0.94796957	      1.45603567	     -0.19265059	      1.01298945	      1.38683874	     -0.33207534	      0.87164827	      1.48390653	     -0.32164520	      0.93128211	      1.36179721	     -0.08223779	      0.86457477	      1.30261154	     -0.06891844	      0.92083215	      1.25425283	     -0.01684328	      0.90944176	      1.18690773	      0.02089117	      0.86353273	      1.15207041	     -0.03315408	      0.79449415	      1.39605505	     -0.54777751	      0.74864688	      1.35394547	     -0.48471460	      0.73387158	      1.31766980	     -0.56423827	      0.67185817	      1.24959940	     -0.57579945	      0.66742596	      1.22779842	     -0.50426755	      1.01400513	      1.18468861	     -0.03282799	      1.08454242	      1.19190578	     -0.15053122	      1.09205787	      1.12736801	     -0.12468974	      0.78482523	      1.22024365	     -0.58634395	      0.90281508	      1.15556747	     -0.53289757	      0.86560599	      1.12014515	     -0.58130182
      4.43000000	     -6.11004901	      2.03892716	     -0.16851309	      0.93386085	      0.94804473	     -0.31774127	     -3.81548545	     -4.19208535	     -4.45469055	    -67.32171943	    -13.07273347	     33.10842955	      7.28329764	     -4.76974041	    -29.16234563	      2.25354858	     -4.39781325	     -3.42539344	     12.01334512	    -14.91767320	    -27.28537652	     -2.27367303	    118.06336161	     88.43194797	    -36.00771820	    -19.68300407	    -11.20143135	    118.36111665	    114.08492501	      0.00000000	      0.00000000	      0.00000000	      0.00000000	      0.00000000	      0.00000000	      0.00000000	      0.00000000	      0.94097544	      0.96916837	     -0.43604179	      0.94104877	      0.96872162	     -0.19808687	      0.77678742	      1.01362436	     -0.37149964	      0.77654377	      1.01312571	     -0.27290895	      0.83591378	      0.72903308	     -0.14161199	      0.87550673	      0.63562380	     -0.14814771	      0.79447305	      0.55936831	     -0.16110822	      0.94741969	      0.78269498	     -0.48641647	      1.02957818	      0.69955184	     -0.46258147	      1.00664152	      0.58218043	     -0.43853588	      0.67479989	      0.39121361	     -0.21447048	      0.58724596	      0.40798178	     -0.17186595	      0.49020678	      0.35032818	     -0.23027460	      1.08500739	      0.39945025	     -0.35977130	      1.03637288	      0.31429388	     -0.41316210	      1.06762341	      0.21248563	     -0.33290086	      0.38596405	      0.42116797	     -0.25791364	      0.36353545	      0.20119950	     -0.26419789	      0.32581861	      0.24946790	     -0.16914143	      0.96394733	      0.10374097	     -0.30853583	      1.18113787	      0.06986347	     -0.30925284	      1.13360327	      0.04957100	     -0.40820246	      0.90569088	      1.45565759	     -0.47804419	      0.94527076	      1.45073827	     -0.19193831	      1.01361065	      1.38017210	     -0.33111562	      0.87061567	      1.47696952	     -0.32317517	      0.92538786	      1.35516262	     -0.08199328	      0.85813496	      1.29686415	     -0.07027236	      0.91288927	      1.24720934	     -0.01763100	      0.89897852	      1.18136951	      0.02043782	      0.85354972	      1.14750971	     -0.03425850	      0.79790345	      1.38588176	     -0.55102767	      0.75045777	      1.34357667	     -0.48939789	      0.73901502	      1.30589857	     -0.56878197	      0.67839415	      1.23758761	     -0.58125652	      0.67284817	      1.21564988	     -0.50982315	      1.00475976	      1.17512140	     -0.03055851	      1.07829029	      1.17806591	     -0.14700637	      1.08345263	      1.11416765	     -0.11936373	      0.79202966	      1.21021716	     -0.59021190	      0.91028252	      1.14861021	     -0.53431844	      0.87507531	      1.11211579	     -0.58342037
      4.44000000	     -5.45290917	      2.73580891	      0.98998555	      0.93115667	      0.94294877	     -0.31953304	     -1.71559770	     -5.31429176	     -5.33406750	    -73.38543769	    -12.17309184	     33.67565011	      8.81496580	     -3.84723664	    -34.96970762	      6.09007433	     -5.50590004	     -4.21392663	      9.80133527	    -15.43150606	    -26.58890683	     -2.37760320	    116.23577051	     89.31405264	    -34.04428347	    -20.22870484	    -10.88974058	    117.91911512	    113.89592392	      0.00000000	      0.00000000	      0.00000000	      0.00000000	      0.00000000	      0.00000000	      0.00000000	      0.00000000	      0.93716887	      0.96602214	     -0.43772869	      0.94091298	      0.96259004	     -0.19989948	      0.77317642	      1.00718072	     -0.36927843	      0.77403579	      1.00461798	     -0.27099283	      0.84404018	      0.72220913	     -0.14122718	      0.88672066	      0.63071308	     -0.14631628	      0.80945256	      0.55119516	     -0.15984829	      0.94434716	      0.77991914	     -0.48738161	      1.02881490	      0.69713030	     -0.46281509	      1.00888722	      0.58184045	     -0.43926152	      0.69253571	      0.38719680	     -0.21226346	      0.60534617	      0.40839080	     -0.16985012	      0.50592214	      0.35604366	     -0.22832123	      1.08059318	      0.40016811	     -0.35442223	      1.03130879	      0.31557483	     -0.41168240	      1.04949743	      0.21244931	     -0.32943307	      0.40501312	      0.43137389	     -0.25632219	      0.37400371	      0.21247767	     -0.26087436	      0.33673149	      0.26304441	     -0.16690898	      0.93544146	      0.10516182	     -0.30750898	      1.15312296	      0.06883021	     -0.30809734	      1.10442387	      0.05130946	     -0.40736608	      0.90679977	      1.44925688	     -0.48015407	      0.94218713	      1.44609186	     -0.19060510	      1.01415444	      1.37400502	     -0.32986234	      0.87030899	      1.47134929	     -0.32453811	      0.91923650	      1.34834751	     -0.08145791	      0.85094715	      1.29086033	     -0.07170124	      0.90384278	      1.23979112	     -0.01865861	      0.88717747	      1.17600321	      0.01956354	      0.84250449	      1.14331928	     -0.03600613	      0.80164277	      1.37489200	     -0.55469006	      0.75249343	      1.33216643	     -0.49460910	      0.74484094	      1.29323734	     -0.57377669	      0.68597175	      1.22493952	     -0.58738291	      0.67889715	      1.20265462	     -0.51615651	      0.99416177	      1.16496366	     -0.02793115	      1.07120056	      1.16295285	     -0.14267195	      1.07351461	      1.09982391	     -0.11301185	      0.80032461	      1.19931048	     -0.59487134	      0.91824036	      1.14070773	     -0.53541813	      0.88542755	      1.10321445	     -0.58564625
